<?xml version="1.0" encoding="UTF-8" standalone="no"?>
<svg
   xmlns:dc="http://purl.org/dc/elements/1.1/"
   xmlns:cc="http://creativecommons.org/ns#"
   xmlns:rdf="http://www.w3.org/1999/02/22-rdf-syntax-ns#"
   xmlns:svg="http://www.w3.org/2000/svg"
   xmlns="http://www.w3.org/2000/svg"
   xmlns:sodipodi="http://sodipodi.sourceforge.net/DTD/sodipodi-0.dtd"
   xmlns:inkscape="http://www.inkscape.org/namespaces/inkscape"
   sodipodi:docname="logo.svg"
   inkscape:version="1.0 (4035a4f, 2020-05-01)"
   id="svg8"
   version="1.1"
   viewBox="0 0 210 297"
   height="297mm"
   width="210mm">
  <defs
     id="defs2" />
  <sodipodi:namedview
     inkscape:window-maximized="0"
     inkscape:window-y="25"
     inkscape:window-x="393"
     inkscape:window-height="943"
     inkscape:window-width="1252"
     showgrid="false"
     inkscape:document-rotation="0"
     inkscape:current-layer="layer1"
     inkscape:document-units="mm"
     inkscape:cy="414.81738"
     inkscape:cx="414.92067"
     inkscape:zoom="0.49497475"
     inkscape:pageshadow="2"
     inkscape:pageopacity="0.0"
     borderopacity="1.0"
     bordercolor="#666666"
     pagecolor="#ffffff"
     id="base">
    <inkscape:grid
       id="grid887"
       type="xygrid" />
  </sodipodi:namedview>
  <metadata
     id="metadata5">
    <rdf:RDF>
      <cc:Work
         rdf:about="">
        <dc:format>image/svg+xml</dc:format>
        <dc:type
           rdf:resource="http://purl.org/dc/dcmitype/StillImage" />
        <dc:title></dc:title>
      </cc:Work>
    </rdf:RDF>
  </metadata>
  <g
     id="layer1"
     inkscape:groupmode="layer"
     inkscape:label="Layer 1">
    <g
       inkscape:export-ydpi="96"
       inkscape:export-xdpi="96"
       id="g945">
      <g
         id="g920"
         style="fill:#56b3f0;fill-opacity:1">
        <path
           id="rect881"
           style="fill:#56b3f0;fill-opacity:1;stroke-width:0.529167;stroke-linejoin:round;paint-order:stroke markers fill;stop-color:#000000"
           d="m 82.020836,79.375 h 5.291666 v 10.583336 h -5.291666 z" />
        <path
           id="rect883"
           style="fill:#56b3f0;fill-opacity:1;stroke-width:0.529167;stroke-linejoin:round;paint-order:stroke markers fill;stop-color:#000000"
           d="M 89.958338,74.083336 H 95.25 c 10e-7,0 2e-6,10e-7 2e-6,2e-6 v 15.874991 c 0,10e-7 -10e-7,2e-6 -2e-6,2e-6 h -5.291662 c -10e-7,0 -2e-6,-10e-7 -2e-6,-2e-6 V 74.083338 c 0,-10e-7 10e-7,-2e-6 2e-6,-2e-6 z" />
        <path
           id="rect889"
           style="fill:#56b3f0;fill-opacity:1;stroke-width:0.529167;stroke-linejoin:round;paint-order:stroke markers fill;stop-color:#000000"
           d="m 97.895838,66.145836 h 5.291662 c 0,0 0,10e-7 0,2e-6 v 23.81249 c 0,1e-6 0,2e-6 0,2e-6 h -5.291662 c -10e-7,0 -2e-6,-10e-7 -2e-6,-2e-6 v -23.81249 c 0,-10e-7 10e-7,-2e-6 2e-6,-2e-6 z" />
        <path
           id="rect891"
           style="fill:#56b3f0;fill-opacity:1;stroke-width:0.529167;stroke-linejoin:round;paint-order:stroke markers fill;stop-color:#000000"
           d="m 105.83335,59.53125 h 5.29163 c 1e-5,0 1e-5,10e-7 1e-5,3e-6 v 30.427073 c 0,10e-7 0,2e-6 -1e-5,2e-6 h -5.29163 c -10e-6,0 -10e-6,-10e-7 -10e-6,-2e-6 V 59.531253 c 0,-2e-6 0,-3e-6 10e-6,-3e-6 z" />
        <path
           id="rect893"
           style="fill:#56b3f0;fill-opacity:1;stroke-width:0.529167;stroke-linejoin:round;paint-order:stroke markers fill;stop-color:#000000"
           d="m 113.77085,74.083336 h 5.29166 c 0,0 0,10e-7 0,2e-6 v 15.874991 c 0,10e-7 0,2e-6 0,2e-6 h -5.29166 c -10e-6,0 -10e-6,-10e-7 -10e-6,-2e-6 V 74.083338 c 0,-10e-7 0,-2e-6 10e-6,-2e-6 z" />
        <path
           id="rect895"
           style="fill:#56b3f0;fill-opacity:1;stroke-width:0.529167;stroke-linejoin:round;paint-order:stroke markers fill;stop-color:#000000"
           d="m 80.697914,92.604164 h 39.687506 v 1.322912 H 80.697914 Z" />
        <path
           id="rect897"
           style="fill:#56b3f0;fill-opacity:1;stroke-width:0.529167;stroke-linejoin:round;paint-order:stroke markers fill;stop-color:#000000"
           d="m 80.697914,95.25 h 39.687506 v 1.322912 H 80.697914 Z" />
      </g>
      <text
         xml:space="preserve"
         style="font-style:normal;font-weight:normal;font-size:69.0457px;line-height:1.25;font-family:sans-serif;letter-spacing:1.55353px;fill:#000000;fill-opacity:1;stroke:none;stroke-width:0.517842"
         x="38.373024"
         y="153.07217"
         id="text909"><tspan
           sodipodi:role="line"
           id="tspan907"
           x="38.373024"
           y="153.07217"
           style="font-style:normal;font-variant:normal;font-weight:300;font-stretch:normal;font-size:69.0457px;font-family:Avenir;-inkscape-font-specification:'Avenir Light';stroke-width:0.517842">ICD</tspan></text>
      <text
         xml:space="preserve"
         style="font-style:normal;font-weight:normal;font-size:8.23038000000000025px;line-height:1.25;font-family:sans-serif;fill:#56b3f0;fill-opacity:1;stroke:none;stroke-width:0.205759;"
         x="45.131294"
         y="163.89064"
         id="text924"
         transform="scale(0.98146476,1.0188853)"><tspan
           sodipodi:role="line"
           id="tspan922"
           x="45.131294"
           y="163.89064"
           style="font-style:normal;font-variant:normal;font-weight:normal;font-stretch:normal;font-family:Avenir;-inkscape-font-specification:Avenir;stroke-width:0.205759;fill:#56b3f0;fill-opacity:1;">Introdução à Ciência de Dados</tspan></text>
    </g>
  </g>
</svg>
